<?xml version="1.0" standalone="no"?>
<!DOCTYPE svg PUBLIC "-//W3C//DTD SVG 20010904//EN"
 "http://www.w3.org/TR/2001/REC-SVG-20010904/DTD/svg10.dtd">
<svg version="1.0" xmlns="http://www.w3.org/2000/svg"
 width="1500.000000pt" height="1500.000000pt" viewBox="0 0 1500.000000 1500.000000"
 preserveAspectRatio="xMidYMid meet">
<metadata>
Created by potrace 1.11, written by Peter Selinger 2001-2013
</metadata>
<g transform="translate(0.000000,1500.000000) scale(0.100000,-0.100000)"
fill="#000000" stroke="none">
<path d="M0 7500 l0 -7500 7500 0 7500 0 0 7500 0 7500 -7500 0 -7500 0 0
-7500z m10781 5870 c224 -23 468 -76 655 -145 263 -96 621 -304 839 -488 344
-291 622 -692 762 -1102 110 -323 137 -572 131 -1220 l-3 -340 -800 0 -800 0
-6 305 c-6 305 -14 385 -55 542 -45 177 -145 392 -238 514 -171 225 -459 344
-827 344 -278 0 -466 -60 -650 -208 -237 -190 -350 -427 -411 -857 -17 -120
-17 -773 0 -905 36 -274 125 -468 284 -615 146 -136 347 -241 785 -414 l53
-21 74 39 c297 154 482 343 805 825 29 43 56 74 61 70 4 -5 47 -74 95 -154
191 -314 367 -600 433 -705 l70 -110 -21 -40 c-34 -67 -142 -238 -210 -332
l-64 -89 135 -69 c252 -130 455 -275 628 -450 181 -184 326 -397 409 -605 173
-431 245 -956 246 -1785 0 -192 -5 -415 -11 -495 -92 -1249 -474 -2013 -1229
-2460 -212 -125 -418 -209 -661 -269 -219 -55 -370 -76 -657 -91 -664 -36
-1255 117 -1763 455 -638 424 -1076 1152 -1149 1909 -6 60 -11 282 -11 493 l0
383 800 0 800 0 0 -301 c0 -221 4 -330 16 -408 48 -327 241 -655 461 -783 183
-106 365 -147 653 -148 277 0 463 34 625 114 273 135 445 402 494 766 36 265
40 1162 7 1450 -51 452 -159 633 -485 818 -158 90 -301 153 -1020 448 -355
146 -729 306 -831 355 -102 50 -252 118 -335 151 -82 33 -231 98 -330 143
-208 95 -668 298 -965 425 -382 163 -536 203 -782 204 -86 1 -159 -2 -163 -5
-3 -4 3 -42 14 -86 26 -103 57 -298 71 -443 6 -76 10 -1078 10 -2982 l0 -2868
-800 0 -800 0 0 405 c0 349 -2 405 -15 405 -8 0 -49 -46 -92 -102 -233 -309
-503 -560 -707 -658 -384 -185 -985 -194 -1433 -21 -172 67 -346 186 -514 351
-413 407 -573 1030 -519 2025 47 869 213 1359 585 1730 356 357 842 530 1610
575 246 14 530 12 649 -4 55 -8 166 -17 245 -20 79 -4 155 -9 168 -12 l23 -6
0 468 c0 279 -5 505 -11 559 -38 311 -168 555 -346 648 -195 101 -477 124
-699 56 -315 -96 -540 -339 -627 -675 l-22 -84 -778 0 -778 0 6 73 c35 386
123 724 269 1022 194 397 486 720 852 947 283 175 584 281 949 335 170 25 611
24 780 0 472 -70 862 -229 1172 -479 l81 -66 99 40 c123 51 290 93 447 114
171 22 514 15 681 -15 156 -28 352 -80 495 -130 62 -23 114 -40 115 -38 1 1
-4 47 -11 102 -42 323 -45 902 -5 1190 79 575 240 1033 499 1415 372 549 913
912 1552 1040 125 25 206 36 380 53 84 9 467 6 561 -3z"/>
<path d="M4460 5579 c-247 -30 -508 -122 -666 -234 -246 -175 -357 -443 -358
-870 0 -206 15 -313 68 -467 50 -146 107 -239 211 -343 143 -144 276 -201 496
-212 469 -24 778 220 882 697 19 89 20 133 24 746 l4 651 -123 18 c-141 20
-426 28 -538 14z"/>
</g>
</svg>
